<svg width="48" height="49" viewBox="0 0 48 49" fill="none" xmlns="http://www.w3.org/2000/svg">
<path fill-rule="evenodd" clip-rule="evenodd" d="M23.9583 4.16667C14.474 4.16667 9.23854 4.49167 6.47083 4.77708C5.5 4.87813 4.87708 5.49792 4.775 6.48333C4.48958 9.26042 4.16667 14.5115 4.16667 24.025C4.16667 34.0542 4.525 40.4573 4.82708 44.0667L8.40313 41.0771C8.80298 40.7428 9.31362 40.5704 9.83429 40.5942C10.355 40.6179 10.8478 40.8359 11.2156 41.2052L14.2698 44.2688L18.2802 41.051C18.6809 40.7298 19.186 40.5679 19.6988 40.5964C20.2115 40.6248 20.6957 40.8416 21.0583 41.2052L23.9583 44.1135L26.8573 41.2052C27.2201 40.8411 27.7046 40.6239 28.2179 40.5954C28.7311 40.567 29.2367 40.7292 29.6375 41.051L33.6479 44.2698L36.701 41.2052C37.069 40.8361 37.5619 40.6182 38.0826 40.5947C38.6032 40.5712 39.1138 40.7437 39.5135 41.0781L43.0896 44.0677C43.3917 40.4573 43.75 34.0542 43.75 24.026C43.75 20.474 43.7042 17.5135 43.6333 15.0542C42.8801 15.0801 42.1266 15.0933 41.3729 15.0938C39.675 15.0938 38.351 15.0219 37.324 14.9208C34.6719 14.6604 32.9917 12.5635 32.8813 10.0771C32.8323 8.89023 32.8094 7.70244 32.8125 6.51458C32.8125 5.75104 32.8198 4.9875 32.8333 4.28229C30.3958 4.21146 27.4667 4.16771 23.9583 4.16771M47.724 12.775V12.7396L47.7219 12.7104C47.6729 11.8094 47.1135 9.19583 42.9333 5.00208C38.8135 0.869792 36.1385 0.2625 35.1906 0.195833L35.1281 0.192708C32.2573 0.0770834 28.6 0 23.9583 0C14.3937 0 9.00417 0.326042 6.04271 0.632292C3.1 0.936458 0.932292 3.11667 0.630208 6.05625C0.325 9.02708 0 14.4323 0 24.026C0 34.4354 0.382292 41.0333 0.701042 44.7208C0.992708 48.0958 4.84375 49.4833 7.30521 47.4271L9.61146 45.4979L11.3198 47.2125C12.0446 47.9402 13.0128 48.3742 14.0383 48.4312C15.0638 48.4881 16.0741 48.1638 16.875 47.5208L19.4281 45.4719L21.0094 47.0573C21.3961 47.4454 21.8556 47.7533 22.3616 47.9633C22.8675 48.1734 23.41 48.2816 23.9578 48.2816C24.5057 48.2816 25.0481 48.1734 25.5541 47.9633C26.06 47.7533 26.5195 47.4454 26.9062 47.0573L28.4885 45.4719L31.0417 47.5208C31.8425 48.1636 32.8526 48.4876 33.8778 48.4307C34.9031 48.3738 35.8711 47.9399 36.5958 47.2125L38.3042 45.4979L40.6115 47.4271C43.0719 49.4833 46.924 48.0969 47.2156 44.7208C47.5333 41.0333 47.9167 34.4344 47.9167 24.026C47.9167 19.3438 47.8385 15.6615 47.724 12.774M26.9104 17.9344C28.1031 16.8146 29.976 16.3833 31.4 17.6354C31.8243 18.0093 32.2247 18.4094 32.599 18.8333C33.851 20.2583 33.4198 22.1313 32.3 23.324C31.6635 24.001 30.7865 24.9198 29.5979 26.1333C30.5083 27.0608 31.409 27.9977 32.3 28.9438C33.4198 30.1365 33.851 32.0094 32.599 33.4333C32.2251 33.8576 31.825 34.258 31.401 34.6323C29.976 35.8844 28.1031 35.4531 26.9104 34.3333C25.9646 33.442 25.0278 32.5413 24.1 31.6313C23.1729 32.5416 22.2364 33.4423 21.2906 34.3333C20.0979 35.4531 18.225 35.8833 16.801 34.6323C16.3768 34.2584 15.9763 33.8583 15.6021 33.4344C14.35 32.0094 14.7812 30.1365 15.901 28.9438C16.7923 27.998 17.6931 27.0611 18.6031 26.1333C17.6928 25.2062 16.792 24.2697 15.901 23.324C14.7812 22.1313 14.35 20.2583 15.6021 18.8344C15.976 18.4101 16.3761 18.0097 16.8 17.6354C18.225 16.3833 20.0979 16.8146 21.2906 17.9344C21.9677 18.5708 22.8865 19.4479 24.1 20.6365C25.0275 19.7261 25.9643 18.8254 26.9104 17.9344Z" fill="#FF002F"/>
</svg>
