<svg width="41" height="42" viewBox="0 0 41 42" fill="none" xmlns="http://www.w3.org/2000/svg">
<path d="M16.2732 41.8039H24.7268L25.9948 35.5333C26.8402 35.185 27.6334 34.8199 28.3745 34.4381C29.1156 34.0563 29.8722 33.5853 30.6443 33.0251L36.7732 34.9063L41 27.7996L36.1392 23.6192C36.2801 22.7135 36.3505 21.8077 36.3505 20.902C36.3505 19.9962 36.2801 19.0905 36.1392 18.1847L41 14.0043L36.7732 6.89765L30.6443 8.77883C29.8694 8.22144 29.1128 7.75045 28.3745 7.36585C27.6363 6.98125 26.843 6.61617 25.9948 6.27059L24.7268 0H16.2732L15.0052 6.27059C14.1598 6.61895 13.368 6.98543 12.6297 7.37003C11.8914 7.75463 11.1334 8.22423 10.3557 8.77883L4.2268 6.89765L0 14.0043L4.86083 18.1847C4.71993 19.0905 4.64949 19.9962 4.64949 20.902C4.64949 21.8077 4.71993 22.7135 4.86083 23.6192L0 27.7996L4.2268 34.9063L10.3557 33.0251C11.1306 33.5825 11.8886 34.0535 12.6297 34.4381C13.3708 34.8227 14.1626 35.1878 15.0052 35.5333L16.2732 41.8039ZM20.5 29.2627C18.1753 29.2627 16.1858 28.4448 14.5318 26.8089C12.8777 25.1729 12.0492 23.204 12.0464 20.902C12.0436 18.6 12.872 16.6324 14.5318 14.9992C16.1915 13.3661 18.1809 12.5467 20.5 12.5412C22.8191 12.5356 24.8099 13.355 26.4725 14.9992C28.135 16.6435 28.9621 18.6111 28.9536 20.902C28.9452 23.1928 28.1181 25.1618 26.4725 26.8089C24.8268 28.4559 22.836 29.2739 20.5 29.2627Z" fill="#878787"/>
<path d="M22.3672 14.1735C22.2929 14.2714 22.2046 14.349 22.1074 14.4019C22.0102 14.4549 21.9061 14.4822 21.8009 14.4822C21.6957 14.4822 21.5916 14.4549 21.4944 14.4019C21.3972 14.349 21.309 14.2714 21.2346 14.1735C21.1602 14.0757 21.1012 13.9595 21.061 13.8316C21.0207 13.7038 21 13.5667 21 13.4284C21 13.29 21.0207 13.1529 21.061 13.0251C21.1012 12.8972 21.1602 12.7811 21.2346 12.6832L28.4337 3.21106C28.508 3.11304 28.5962 3.03528 28.6934 2.98222C28.7906 2.92917 28.8948 2.90186 29 2.90186C29.1052 2.90186 29.2094 2.92917 29.3066 2.98222C29.4038 3.03528 29.492 3.11304 29.5663 3.21106L36.7654 12.6832C36.9156 12.8808 37 13.1489 37 13.4284C37 13.7078 36.9156 13.9759 36.7654 14.1735C36.6152 14.3711 36.4115 14.4822 36.1991 14.4822C35.9867 14.4822 35.783 14.3711 35.6328 14.1735L29 5.44438L22.3672 14.1735ZM22.3672 22.5932C22.2929 22.6911 22.2046 22.7687 22.1074 22.8216C22.0102 22.8746 21.9061 22.9019 21.8009 22.9019C21.6957 22.9019 21.5916 22.8746 21.4944 22.8216C21.3972 22.7687 21.309 22.6911 21.2346 22.5932C21.1602 22.4954 21.1012 22.3792 21.061 22.2513C21.0207 22.1235 21 21.9865 21 21.8481C21 21.7097 21.0207 21.5726 21.061 21.4448C21.1012 21.3169 21.1602 21.2008 21.2346 21.1029L28.4337 11.6308C28.508 11.5327 28.5962 11.455 28.6934 11.4019C28.7906 11.3489 28.8948 11.3216 29 11.3216C29.1052 11.3216 29.2094 11.3489 29.3066 11.4019C29.4038 11.455 29.492 11.5327 29.5663 11.6308L36.7654 21.1029C36.8398 21.2008 36.8988 21.3169 36.939 21.4448C36.9793 21.5726 37 21.7097 37 21.8481C37 21.9865 36.9793 22.1235 36.939 22.2513C36.8988 22.3792 36.8398 22.4954 36.7654 22.5932C36.691 22.6911 36.6028 22.7687 36.5056 22.8216C36.4084 22.8746 36.3043 22.9019 36.1991 22.9019C36.0939 22.9019 35.9898 22.8746 35.8926 22.8216C35.7954 22.7687 35.7071 22.6911 35.6328 22.5932L29 13.8641L22.3672 22.5932Z" fill="#00F2FF"/>
</svg>
