<svg width="118" height="118" viewBox="0 0 118 118" fill="none" xmlns="http://www.w3.org/2000/svg">
<path fill-rule="evenodd" clip-rule="evenodd" d="M32.7778 26.2222C32.7778 19.2677 35.5405 12.5979 40.4581 7.68031C45.3757 2.76269 52.0454 0 59 0C65.9546 0 72.6243 2.76269 77.5419 7.68031C82.4595 12.5979 85.2222 19.2677 85.2222 26.2222C85.2222 33.1768 82.4595 39.8465 77.5419 44.7641C72.6243 49.6818 65.9546 52.4444 59 52.4444C52.0454 52.4444 45.3757 49.6818 40.4581 44.7641C35.5405 39.8465 32.7778 33.1768 32.7778 26.2222ZM32.7778 65.5556C24.0846 65.5556 15.7474 69.0089 9.60039 75.1559C3.45336 81.303 0 89.6401 0 98.3333C0 103.549 2.07202 108.552 5.76023 112.24C9.44845 115.928 14.4507 118 19.6667 118H98.3333C103.549 118 108.552 115.928 112.24 112.24C115.928 108.552 118 103.549 118 98.3333C118 89.6401 114.547 81.303 108.4 75.1559C102.253 69.0089 93.9154 65.5556 85.2222 65.5556H32.7778Z" fill="white"/>
</svg>
