<svg width="201" height="201" viewBox="0 0 201 201" fill="none" xmlns="http://www.w3.org/2000/svg">
<g clip-path="url(#clip0_200_175)">
<path d="M94.2188 113.063C95.7011 113.079 97.15 113.213 98.5654 113.465L86.4174 125.625H31.4062C28.0745 125.625 24.8791 126.949 22.5232 129.304C20.1673 131.66 18.8438 134.856 18.8438 138.188C18.8438 144.569 22.6627 150.65 30.552 155.461C38.4412 160.272 49.8229 163.313 62.8125 163.313C70.3877 163.313 77.4101 162.232 83.5155 160.423L93.4022 170.297C84.4828 173.928 73.9303 175.875 62.8125 175.875C48.0516 175.875 34.2956 172.458 24.0069 166.202C13.7057 159.921 6.28125 150.31 6.28125 138.188C6.28125 131.524 8.92834 125.133 13.6402 120.421C18.352 115.71 24.7427 113.063 31.4062 113.063H94.2188ZM165.159 114.897C166.337 113.719 167.934 113.058 169.6 113.058C171.266 113.058 172.863 113.719 174.041 114.897L199.166 140.022C200.343 141.2 201.005 142.797 201.005 144.462C201.005 146.128 200.343 147.725 199.166 148.903L174.041 174.028C173.461 174.628 172.768 175.107 172.002 175.436C171.236 175.765 170.411 175.938 169.577 175.946C168.743 175.953 167.916 175.794 167.144 175.478C166.372 175.162 165.671 174.696 165.081 174.106C164.492 173.516 164.025 172.815 163.709 172.043C163.394 171.271 163.235 170.444 163.242 169.61C163.249 168.776 163.422 167.952 163.752 167.186C164.081 166.419 164.559 165.726 165.159 165.147L179.556 150.75H109.382L123.791 165.147C124.374 165.731 124.836 166.424 125.152 167.187C125.467 167.949 125.629 168.767 125.628 169.592C125.628 170.417 125.465 171.234 125.148 171.997C124.832 172.759 124.369 173.451 123.785 174.035C123.201 174.618 122.507 175.08 121.745 175.396C120.982 175.711 120.165 175.873 119.339 175.872C118.514 175.872 117.697 175.709 116.935 175.392C116.172 175.076 115.48 174.612 114.897 174.028L89.7716 148.903C88.5941 147.725 87.9326 146.128 87.9326 144.462C87.9326 142.797 88.5941 141.2 89.7716 140.022L114.897 114.897C116.076 113.717 117.676 113.055 119.344 113.055C121.012 113.055 122.611 113.717 123.791 114.897C124.97 116.076 125.633 117.676 125.633 119.344C125.633 121.012 124.97 122.611 123.791 123.791L109.382 138.188H179.556L165.159 123.791C164.574 123.207 164.11 122.514 163.793 121.751C163.477 120.988 163.314 120.17 163.314 119.344C163.314 118.518 163.477 117.699 163.793 116.936C164.11 116.173 164.574 115.48 165.159 114.897ZM147.358 44.0944C154.325 44.8093 160.78 48.082 165.474 53.2797C170.168 58.4773 172.768 65.2308 172.772 72.2344L172.621 75.1238C171.898 82.0818 168.623 88.5254 163.429 93.2115C158.235 97.8976 151.489 100.494 144.494 100.5L141.605 100.349C135.133 99.6889 129.087 96.8165 124.487 92.2164C119.887 87.6164 117.014 81.5704 116.354 75.0986L116.203 72.2093C116.2 68.4931 116.929 64.8128 118.35 61.3789C119.77 57.9451 121.854 54.825 124.482 52.1973C127.11 49.5696 130.23 47.4858 133.664 46.0653C137.097 44.6447 140.778 43.9152 144.494 43.9185L147.358 44.0944ZM62.8125 31.4062C71.9749 31.4063 80.762 35.046 87.2408 41.5248C93.7196 48.0036 97.3594 56.7907 97.3594 65.9531C97.3594 75.1155 93.7196 83.9027 87.2408 90.3815C80.762 96.8603 71.9749 100.5 62.8125 100.5C53.6501 100.5 44.863 96.8603 38.3842 90.3815C31.9054 83.9027 28.2656 75.1155 28.2656 65.9531C28.2656 56.7907 31.9054 48.0036 38.3842 41.5248C44.863 35.046 53.6501 31.4063 62.8125 31.4062ZM144.494 56.4936C140.322 56.4936 136.322 58.1506 133.372 61.1003C130.423 64.0499 128.766 68.0504 128.766 72.2218C128.766 76.3932 130.423 80.3938 133.372 83.3434C136.322 86.293 140.322 87.9501 144.494 87.9501C148.665 87.9501 152.666 86.293 155.615 83.3434C158.565 80.3938 160.222 76.3932 160.222 72.2218C160.222 68.0504 158.565 64.0499 155.615 61.1003C152.666 58.1506 148.665 56.4936 144.494 56.4936ZM62.8125 43.9688C56.9819 43.9688 51.3901 46.285 47.2672 50.4078C43.1443 54.5307 40.8281 60.1225 40.8281 65.9531C40.8281 71.7837 43.1443 77.3756 47.2672 81.4984C51.3901 85.6213 56.9819 87.9375 62.8125 87.9375C68.6431 87.9375 74.2349 85.6213 78.3578 81.4984C82.4807 77.3756 84.7969 71.7837 84.7969 65.9531C84.7969 60.1225 82.4807 54.5307 78.3578 50.4078C74.2349 46.285 68.6431 43.9688 62.8125 43.9688Z" fill="white"/>
</g>
<defs>
<clipPath id="clip0_200_175">
<rect width="201" height="201" fill="white"/>
</clipPath>
</defs>
</svg>
