<svg width="136" height="147" viewBox="0 0 136 147" fill="none" xmlns="http://www.w3.org/2000/svg">
<path d="M45.0568 71.2848V6.80482V2.0481H90.5099V71.2848H45.0568Z" fill="#8B5CF6"/>
<path d="M45.0568 140.521V76.0413V71.2845H90.5099V140.521H45.0568Z" fill="#2563EB"/>
<path d="M2.77476 92.9541V52.5926V49.6151H48.2279V92.9541H2.77476Z" fill="#EF4444"/>
<path d="M88.3958 92.9541V52.5926V49.6151H133.849V92.9541H88.3958Z" fill="#22C55E"/>
<path d="M129.918 0H5.64861C4.1505 0 2.71376 0.595121 1.65444 1.65444C0.595121 2.71376 0 4.1505 0 5.64861V112.972C0 115.968 1.19024 118.842 3.30888 120.961C5.42752 123.079 8.30101 124.269 11.2972 124.269H39.5403C42.5365 124.269 45.41 123.079 47.5286 120.961C49.6472 118.842 50.8375 115.968 50.8375 112.972V79.0805H84.7291V90.3777C84.7291 93.374 85.9194 96.2474 88.038 98.3661C90.1566 100.485 93.0301 101.675 96.0263 101.675H124.269C127.266 101.675 130.139 100.485 132.258 98.3661C134.376 96.2474 135.567 93.374 135.567 90.3777V5.64861C135.567 4.1505 134.971 2.71376 133.912 1.65444C132.853 0.595121 131.416 0 129.918 0ZM124.269 45.1889H96.0263V11.2972H124.269V45.1889ZM39.5403 11.2972V45.1889H11.2972V11.2972H39.5403ZM39.5403 112.972H11.2972V56.4861H39.5403V112.972ZM50.8375 67.7833V11.2972H84.7291V67.7833H50.8375ZM96.0263 90.3777V56.4861H124.269V90.3777H96.0263Z" fill="white"/>
<path opacity="0.2" d="M124.335 77.0984V90.84H94.7381V77.0984H124.335Z" fill="black"/>
<path opacity="0.2" d="M40.1679 77.1646V89.8491H10.5705V77.1646H40.1679Z" fill="black"/>
<path opacity="0.2" d="M87.3387 121.495V135.237H49.2849V121.495H87.3387Z" fill="black"/>
<path opacity="0.2" d="M85.2246 53.9093V67.6509H50.342V53.9093H85.2246Z" fill="black"/>
<path d="M5.64861 146.401L129.918 146.401C131.416 146.401 132.853 145.806 133.912 144.747C134.971 143.688 135.567 142.251 135.567 140.753L135.567 33.4292C135.567 30.433 134.376 27.5595 132.258 25.4408C130.139 23.3222 127.266 22.132 124.269 22.132L96.0264 22.132C93.0302 22.132 90.1567 23.3222 88.038 25.4408C85.9194 27.5595 84.7291 30.433 84.7291 33.4292L84.7291 67.3208L50.8375 67.3208L50.8375 56.0236C50.8375 53.0274 49.6472 50.1539 47.5286 48.0353C45.41 45.9166 42.5365 44.7264 39.5403 44.7264L11.2972 44.7264C8.30102 44.7264 5.42753 45.9166 3.30889 48.0353C1.19025 50.1539 1.19777e-05 53.0274 1.17158e-05 56.0236L4.30851e-06 140.753C4.17755e-06 142.251 0.595119 143.688 1.65444 144.747C2.71376 145.806 4.15051 146.401 5.64861 146.401ZM11.2972 101.212L39.5403 101.212L39.5403 135.104L11.2972 135.104L11.2972 101.212ZM96.0264 135.104L96.0264 101.212L124.269 101.212L124.269 135.104L96.0264 135.104ZM96.0264 33.4292L124.269 33.4292L124.269 89.9153L96.0264 89.9153L96.0264 33.4292ZM84.7291 78.6181L84.7291 135.104L50.8375 135.104L50.8375 78.618L84.7291 78.6181ZM39.5403 56.0236L39.5403 89.9153L11.2972 89.9153L11.2972 56.0236L39.5403 56.0236Z" fill="white"/>
</svg>
