<svg width="109" height="117" viewBox="0 0 109 117" fill="none" xmlns="http://www.w3.org/2000/svg">
<path d="M103.73 0H4.50999C3.31387 0 2.16673 0.475159 1.32095 1.32095C0.475159 2.16673 0 3.31387 0 4.50999V90.1998C0 92.5921 0.950316 94.8863 2.64189 96.5779C4.33347 98.2695 6.62773 99.2198 9.01998 99.2198H31.5699C33.9622 99.2198 36.2564 98.2695 37.948 96.5779C39.6396 94.8863 40.5899 92.5921 40.5899 90.1998V63.1399H67.6499V72.1599C67.6499 74.5521 68.6002 76.8464 70.2918 78.5379C71.9833 80.2295 74.2776 81.1798 76.6698 81.1798H99.2198C101.612 81.1798 103.906 80.2295 105.598 78.5379C107.289 76.8464 108.24 74.5521 108.24 72.1599V4.50999C108.24 3.31387 107.765 2.16673 106.919 1.32095C106.073 0.475159 104.926 0 103.73 0ZM99.2198 36.0799H76.6698V9.01998H99.2198V36.0799ZM31.5699 9.01998V36.0799H9.01998V9.01998H31.5699ZM31.5699 90.1998H9.01998V45.0999H31.5699V90.1998ZM40.5899 54.1199V9.01998H67.6499V54.1199H40.5899ZM76.6698 72.1599V45.0999H99.2198V72.1599H76.6698Z" fill="white"/>
<path d="M4.51008 116.89L103.73 116.891C104.926 116.891 106.073 116.415 106.919 115.57C107.765 114.724 108.24 113.577 108.24 112.381L108.24 26.6907C108.24 24.2984 107.29 22.0042 105.598 20.3126C103.906 18.621 101.612 17.6707 99.2199 17.6707L76.6699 17.6707C74.2777 17.6707 71.9834 18.621 70.2919 20.3126C68.6003 22.0042 67.65 24.2984 67.65 26.6907L67.65 53.7506L40.59 53.7506L40.59 44.7306C40.59 42.3384 39.6397 40.0441 37.9481 38.3525C36.2565 36.661 33.9623 35.7107 31.57 35.7107L9.02008 35.7107C6.62783 35.7107 4.33357 36.661 2.64199 38.3525C0.950417 40.0441 9.80703e-05 42.3384 9.78611e-05 44.7306L9.1947e-05 112.381C9.18424e-05 113.577 0.475247 114.724 1.32103 115.57C2.16682 116.415 3.31396 116.89 4.51008 116.89ZM9.02008 80.8106L31.57 80.8106L31.57 107.871L9.02007 107.871L9.02008 80.8106ZM76.6699 107.871L76.6699 80.8106L99.2199 80.8106L99.2199 107.871L76.6699 107.871ZM76.6699 26.6907L99.2199 26.6907L99.2199 71.7906L76.6699 71.7906L76.6699 26.6907ZM67.65 62.7706L67.65 107.871L40.59 107.871L40.59 62.7706L67.65 62.7706ZM31.57 44.7306L31.57 71.7906L9.02008 71.7906L9.02008 44.7306L31.57 44.7306Z" fill="white"/>
</svg>
