<svg width="144" height="115" viewBox="0 0 144 115" fill="none" xmlns="http://www.w3.org/2000/svg">
<path d="M49.75 57.0417H93.5M71.625 35.1667V78.9167M27.875 108.083C24.0073 108.083 20.2979 106.547 17.563 103.812C14.8281 101.077 13.2917 97.3677 13.2917 93.5V64.3333L6 57.0417L13.2917 49.75V20.5833C13.2917 16.7156 14.8281 13.0063 17.563 10.2714C20.2979 7.53645 24.0073 6 27.875 6M115.375 108.083C119.243 108.083 122.952 106.547 125.687 103.812C128.422 101.077 129.958 97.3677 129.958 93.5V64.3333L137.25 57.0417L129.958 49.75V20.5833C129.958 16.7156 128.422 13.0063 125.687 10.2714C122.952 7.53645 119.243 6 115.375 6" stroke="white" stroke-width="12" stroke-linecap="round" stroke-linejoin="round"/>
</svg>
