<svg width="93" height="123" viewBox="0 0 93 123" fill="none" xmlns="http://www.w3.org/2000/svg">
<path fill-rule="evenodd" clip-rule="evenodd" d="M57.6562 111.472L11.5312 92.2532V30.7532L57.6562 11.5345V111.472ZM4.72781 101.909C3.3275 101.325 2.13136 100.339 1.29005 99.0764C0.448733 97.8138 -0.000126553 96.3304 2.67644e-08 94.8131V28.1933C-0.000126553 26.676 0.448733 25.1926 1.29005 23.93C2.13136 22.6673 3.3275 21.6819 4.72781 21.0977L53.2206 0.887269C54.9732 0.156905 56.879 -0.129391 58.7688 0.0538006C60.6587 0.236992 62.474 0.884004 64.0537 1.93738C65.6334 2.99076 66.9285 4.41792 67.8241 6.09212C68.7197 7.76632 69.188 9.63577 69.1875 11.5345V15.3782H78.7969C86.223 15.3782 92.25 21.3975 92.25 28.8313V94.1751C92.25 97.7431 90.8326 101.165 88.3097 103.688C85.7867 106.211 82.3649 107.628 78.7969 107.628H69.1875V111.472C69.188 113.371 68.7197 115.24 67.8241 116.914C66.9285 118.588 65.6334 120.016 64.0537 121.069C62.474 122.122 60.6587 122.769 58.7688 122.953C56.879 123.136 54.9732 122.85 53.2206 122.119L4.72781 101.909ZM69.1875 96.097H78.7969C79.3066 96.097 79.7954 95.8945 80.1558 95.5341C80.5163 95.1736 80.7188 94.6848 80.7188 94.1751V28.8313C80.7188 28.3216 80.5163 27.8328 80.1558 27.4724C79.7954 27.1119 79.3066 26.9095 78.7969 26.9095H69.1875V96.097Z" fill="white"/>
</svg>
